<svg version="1.1" id="widget" xmlns="http://www.w3.org/2000/svg" xmlns:xlink="http://www.w3.org/1999/xlink" x="0px" y="0px"
	 viewBox="0 0 320 320" vector-effect='non-scaling-stroke' filter='url(#glow)'>
  <defs>
    <filter id='glow'>
      <feGaussianBlur class="blur" result="coloredBlur" stdDeviation="2"></feGaussianBlur>
      <feMerge>
        <feMergeNode in="coloredBlur"></feMergeNode>
        <feMergeNode in="coloredBlur"></feMergeNode>
        <feMergeNode in="SourceGraphic"></feMergeNode>
      </feMerge>
    </filter>

    <path id="button" d="M249.1,35.5l-17.2,23.6c-19.9-14.8-44.4-23.5-71-23.5V6.8C193.9,6.8,224.3,17.4,249.1,35.5z"  pointer-events="all" />
  </defs>
  <!-- outer ring -->
  <circle id="dashed" stroke-width="25" stroke-dasharray='2.3' cx="160" cy="160" r="100"/>
  <circle id="XMLID_4_" stroke-width="2" cx="160" cy="160" r="115"/>

  <!-- middle ring -->
  <g id="XMLID_5_">
    <circle id="XMLID_6_" stroke-width="2" stroke-dasharray="90" cx="160" cy="160" r="77.9"/>
    <circle id="XMLID_7_" stroke-width="2" stroke-dasharray="120" cx="160" cy="160" r="80.2"/>
    <circle id="XMLID_8_" stroke-width="2" stroke-dasharray="50" cx="160" cy="160" r="82.5"/>
  </g>
  <!-- inner ring -->
  <g id="inner">
    <circle id="bevel" stroke-width="10" stroke-dasharray="80" stroke-linecap="round" cx="160" cy="160" r="60.3"/>
    <circle id="base" stroke-width="7" cx="160" cy="160" r="62.5"/>
  </g>

  <!-- outer border -->
  <path id="outer-border" d="M280,160c0,12.9-2,25.1-5.7,36.7c-7.8,24.3-23.2,45.3-43.3,60c-19.9,14.7-44.4,23.3-71,23.3 c-26.6,0-51.1-8.6-71-23.3c-20.1-14.7-35.5-35.6-43.3-60C42,185.2,40,172.8,40,160c0-12.8,2-25.1,5.7-36.7C53.5,99,68.8,78,89,63.3 C108.9,48.6,133.4,40,160,40s51.1,8.6,71,23.3c20.1,14.7,35.5,35.6,43.3,60C278,134.7,280,147.1,280,160z"/>

  <g id='buttons'>
    <use id='first' href='#button' transform='rotate(-0)' transform-origin='center' />
    <use id='second' href='#button' transform='rotate(-45)' transform-origin='center' />
    <use id='third' href='#button' transform='rotate(45)' transform-origin='center' />
    <use id='fourth' href='#button' transform='rotate(90)' transform-origin='center' />
    <use id='fifth' href='#button' transform='rotate(-90)' transform-origin='center' />
    <use id='sixth' href='#button' transform='rotate(135)' transform-origin='center' />
    <use id='seventh' href='#button' transform='rotate(-135)' transform-origin='center' />
  </g>
</svg>
